<svg t="1647228898335" class="icon" viewBox="0 0 1024 1024" version="1.1" xmlns="http://www.w3.org/2000/svg" p-id="12128" width="200" height="200"><path d="M955.606718 0H68.29337C30.497061 0 0.000039 30.597012 0.000039 68.293331v887.413338c0 37.696319 30.497022 68.293331 68.293331 68.293331h887.413338c37.696319 0 68.293331-30.497022 68.293331-68.293331V68.293331C1023.900049 30.597012 993.303037 0 955.606718 0z" fill="#CECECE" p-id="12129"></path><path d="M634.138 160.655c-2.9-8.899-15.398-9.299-18.798-0.5l-64.394 163.884c-36.996-7.199-76.393-6.399-115.089 4.3-39.796 10.999-74.393 31.197-102.69 57.294l-162.184-110.289c-6.899-4.7-15.898 1.9-13.599 9.799l217.379 744.927h527.948l-268.574-869.415z" fill="#FFFFFF" p-id="12130"></path><path d="M707.530944 682.833317c-0.899912-0.799922-1.699834-1.699834-2.599746-2.499756-6.399375-6.499365-16.99834-4.499561-20.897959 3.799629-27.097354 58.194317-90.591153 99.290304-164.783908 99.290304-32.696807 0-63.193829-7.999219-89.49126-21.797872-8.199199-4.29958-18.198223-1.299873-23.097745 6.599356-0.09999 0.09999-0.09999 0.19998-0.19998 0.299971-4.899522 7.999219-1.899814 18.298213 6.199394 22.597793 31.296944 16.79836 67.693389 26.397422 106.489601 26.397422 84.291768 0 157.08466-45.295577 191.481301-110.68919 4.39957-8.099209 3.299678-17.798262-3.099698-23.997657z m-256.674934-51.794942c16.598379 0 30.097061-13.498682 30.097061-30.097061s-13.498682-30.097061-30.097061-30.097061-30.097061 13.498682-30.097061 30.097061 13.398692 30.097061 30.097061 30.097061zM571.044273 600.941314c16.598379 0 30.097061-13.498682 30.097061-30.097061s-13.498682-30.097061-30.097061-30.09706-30.097061 13.498682-30.097061 30.09706 13.498682 30.097061 30.097061 30.097061z" fill="#C3C3C3" p-id="12131"></path></svg>